<svg width="1440" height="615" viewBox="0 0 1440 615" fill="none" xmlns="http://www.w3.org/2000/svg">
<path d="M589 583.722C1060 478.314 1214 583.722 1440 604.604V0H0V573.777C214 620.515 308.716 622.565 589 583.722Z" fill="#4E54C8"/>
<path d="M589 583.722C1060 478.314 1214 583.722 1440 604.604V0H0V573.777C214 620.515 308.716 622.565 589 583.722Z" fill="#2D3A8C"/>
<mask id="mask0" mask-type="alpha" maskUnits="userSpaceOnUse" x="0" y="0" width="1440" height="615">
<path d="M589 587C1060 481 1214 587 1440 608V0H0V577C214 624 308.716 626.061 589 587Z" fill="#4E54C8"/>
<path d="M589 587C1060 481 1214 587 1440 608V0H0V577C214 624 308.716 626.061 589 587Z" fill="#2D3A8C"/>
</mask>
<g mask="url(#mask0)">
<path opacity="0.1" d="M2463 173.25C2463 173.25 2305.75 135.5 2148.5 135.5C1991.25 135.5 1834 173.25 1834 173.25C1834 173.25 1676.75 211 1519.5 211C1362.25 211 1205 173.25 1205 173.25C1205 173.25 1047.75 135.5 890.5 135.5C733.25 135.5 576 173.25 576 173.25C576 173.25 418.75 211 261.5 211C104.25 211 -53 173.25 -53 173.25" stroke="#E0E8F9" stroke-width="1.5"/>
<path opacity="0.1" d="M2463 139.75C2463 139.75 2305.75 102 2148.5 102C1991.25 102 1834 139.75 1834 139.75C1834 139.75 1676.75 177.5 1519.5 177.5C1362.25 177.5 1205 139.75 1205 139.75C1205 139.75 1047.75 102 890.5 102C733.25 102 576 139.75 576 139.75C576 139.75 418.75 177.5 261.5 177.5C104.25 177.5 -53 139.75 -53 139.75" stroke="#E0E8F9" stroke-width="1.5"/>
<path opacity="0.1" d="M2463 206.75C2463 206.75 2305.75 169 2148.5 169C1991.25 169 1834 206.75 1834 206.75C1834 206.75 1676.75 244.5 1519.5 244.5C1362.25 244.5 1205 206.75 1205 206.75C1205 206.75 1047.75 169 890.5 169C733.25 169 576 206.75 576 206.75C576 206.75 418.75 244.5 261.5 244.5C104.25 244.5 -53 206.75 -53 206.75" stroke="#E0E8F9" stroke-width="1.5"/>
<path opacity="0.1" d="M2463 106.25C2463 106.25 2305.75 68.5 2148.5 68.5C1991.25 68.5 1834 106.25 1834 106.25C1834 106.25 1676.75 144 1519.5 144C1362.25 144 1205 106.25 1205 106.25C1205 106.25 1047.75 68.5 890.5 68.5C733.25 68.5 576 106.25 576 106.25C576 106.25 418.75 144 261.5 144C104.25 144 -53 106.25 -53 106.25" stroke="#E0E8F9" stroke-width="1.5"/>
<path opacity="0.1" d="M2463 72.75C2463 72.75 2305.75 35 2148.5 35C1991.25 35 1834 72.75 1834 72.75C1834 72.75 1676.75 110.5 1519.5 110.5C1362.25 110.5 1205 72.75 1205 72.75C1205 72.75 1047.75 35 890.5 35C733.25 35 576 72.75 576 72.75C576 72.75 418.75 110.5 261.5 110.5C104.25 110.5 -53 72.75 -53 72.75" stroke="#E0E8F9" stroke-width="1.5"/>
<path opacity="0.1" d="M2463 38.75C2463 38.75 2305.75 1 2148.5 1C1991.25 1 1834 38.75 1834 38.75C1834 38.75 1676.75 76.5 1519.5 76.5C1362.25 76.5 1205 38.75 1205 38.75C1205 38.75 1047.75 1 890.5 1C733.25 1 576 38.75 576 38.75C576 38.75 418.75 76.5 261.5 76.5C104.25 76.5 -53 38.75 -53 38.75" stroke="#E0E8F9" stroke-width="1.5"/>
<path opacity="0.1" d="M2463 -3.25C2463 -3.25 2305.75 -41 2148.5 -41C1991.25 -41 1834 -3.25 1834 -3.25C1834 -3.25 1676.75 34.5 1519.5 34.5C1362.25 34.5 1205 -3.25 1205 -3.25C1205 -3.25 1047.75 -41 890.5 -41C733.25 -41 576 -3.25 576 -3.25C576 -3.25 418.75 34.5 261.5 34.5C104.25 34.5 -53 -3.25 -53 -3.25" stroke="#E0E8F9" stroke-width="1.5"/>
<path opacity="0.1" d="M2463 240.25C2463 240.25 2305.75 202.5 2148.5 202.5C1991.25 202.5 1834 240.25 1834 240.25C1834 240.25 1676.75 278 1519.5 278C1362.25 278 1205 240.25 1205 240.25C1205 240.25 1047.75 202.5 890.5 202.5C733.25 202.5 576 240.25 576 240.25C576 240.25 418.75 278 261.5 278C104.25 278 -53 240.25 -53 240.25" stroke="#E0E8F9" stroke-width="1.5"/>
<path opacity="0.1" d="M2463 374.25C2463 374.25 2305.75 336.5 2148.5 336.5C1991.25 336.5 1834 374.25 1834 374.25C1834 374.25 1676.75 412 1519.5 412C1362.25 412 1205 374.25 1205 374.25C1205 374.25 1047.75 336.5 890.5 336.5C733.25 336.5 576 374.25 576 374.25C576 374.25 418.75 412 261.5 412C104.25 412 -53 374.25 -53 374.25" stroke="#E0E8F9" stroke-width="1.5"/>
<path opacity="0.1" d="M2463 340.75C2463 340.75 2305.75 303 2148.5 303C1991.25 303 1834 340.75 1834 340.75C1834 340.75 1676.75 378.5 1519.5 378.5C1362.25 378.5 1205 340.75 1205 340.75C1205 340.75 1047.75 303 890.5 303C733.25 303 576 340.75 576 340.75C576 340.75 418.75 378.5 261.5 378.5C104.25 378.5 -53 340.75 -53 340.75" stroke="#E0E8F9" stroke-width="1.5"/>
<path opacity="0.1" d="M2463 407.75C2463 407.75 2305.75 370 2148.5 370C1991.25 370 1834 407.75 1834 407.75C1834 407.75 1676.75 445.5 1519.5 445.5C1362.25 445.5 1205 407.75 1205 407.75C1205 407.75 1047.75 370 890.5 370C733.25 370 576 407.75 576 407.75C576 407.75 418.75 445.5 261.5 445.5C104.25 445.5 -53 407.75 -53 407.75" stroke="#E0E8F9" stroke-width="1.5"/>
<path opacity="0.1" d="M2463 307.25C2463 307.25 2305.75 269.5 2148.5 269.5C1991.25 269.5 1834 307.25 1834 307.25C1834 307.25 1676.75 345 1519.5 345C1362.25 345 1205 307.25 1205 307.25C1205 307.25 1047.75 269.5 890.5 269.5C733.25 269.5 576 307.25 576 307.25C576 307.25 418.75 345 261.5 345C104.25 345 -53 307.25 -53 307.25" stroke="#E0E8F9" stroke-width="1.5"/>
<path opacity="0.1" d="M2463 273.75C2463 273.75 2305.75 236 2148.5 236C1991.25 236 1834 273.75 1834 273.75C1834 273.75 1676.75 311.5 1519.5 311.5C1362.25 311.5 1205 273.75 1205 273.75C1205 273.75 1047.75 236 890.5 236C733.25 236 576 273.75 576 273.75C576 273.75 418.75 311.5 261.5 311.5C104.25 311.5 -53 273.75 -53 273.75" stroke="#E0E8F9" stroke-width="1.5"/>
<path opacity="0.1" d="M2463 441.25C2463 441.25 2305.75 403.5 2148.5 403.5C1991.25 403.5 1834 441.25 1834 441.25C1834 441.25 1676.75 479 1519.5 479C1362.25 479 1205 441.25 1205 441.25C1205 441.25 1047.75 403.5 890.5 403.5C733.25 403.5 576 441.25 576 441.25C576 441.25 418.75 479 261.5 479C104.25 479 -53 441.25 -53 441.25" stroke="#E0E8F9" stroke-width="1.5"/>
<path opacity="0.1" d="M2463 508.25C2463 508.25 2305.75 470.5 2148.5 470.5C1991.25 470.5 1834 508.25 1834 508.25C1834 508.25 1676.75 546 1519.5 546C1362.25 546 1205 508.25 1205 508.25C1205 508.25 1047.75 470.5 890.5 470.5C733.25 470.5 576 508.25 576 508.25C576 508.25 418.75 546 261.5 546C104.25 546 -53 508.25 -53 508.25" stroke="#E0E8F9" stroke-width="1.5"/>
<path opacity="0.1" d="M2463 474.75C2463 474.75 2305.75 437 2148.5 437C1991.25 437 1834 474.75 1834 474.75C1834 474.75 1676.75 512.5 1519.5 512.5C1362.25 512.5 1205 474.75 1205 474.75C1205 474.75 1047.75 437 890.5 437C733.25 437 576 474.75 576 474.75C576 474.75 418.75 512.5 261.5 512.5C104.25 512.5 -53 474.75 -53 474.75" stroke="#E0E8F9" stroke-width="1.5"/>
<path opacity="0.1" d="M2463 541.75C2463 541.75 2305.75 504 2148.5 504C1991.25 504 1834 541.75 1834 541.75C1834 541.75 1676.75 579.5 1519.5 579.5C1362.25 579.5 1205 541.75 1205 541.75C1205 541.75 1047.75 504 890.5 504C733.25 504 576 541.75 576 541.75C576 541.75 418.75 579.5 261.5 579.5C104.25 579.5 -53 541.75 -53 541.75" stroke="#E0E8F9" stroke-width="1.5"/>
</g>
</svg>